<mxfile host="app.diagrams.net" modified="2024-07-22T13:54:55.178Z" agent="Mozilla/5.0 (Windows NT 10.0; Win64; x64) AppleWebKit/537.36 (KHTML, like Gecko) Chrome/123.0.0.0 Safari/537.36 OPR/109.0.0.0" version="24.7.1" etag="1hpPvpQQTk7D8ohON31X" type="github">
  <diagram name="PÃ¡gina-1" id="fU3PbF-SOBO28bapLnHQ">
    <mxGraphModel>
      <root>
        <mxCell id="0" />
        <mxCell id="1" parent="0" />
      </root>
    </mxGraphModel>
  </diagram>
</mxfile>
